<svg width="127" height="90" viewBox="0 0 127 90" fill="none" xmlns="http://www.w3.org/2000/svg">
<g id="Logo">
<path id="Vector" d="M10.3034 81.5789V63.2433H7.29736V81.5789H10.3034Z" fill="#787878"/>
<path id="Vector_2" d="M12.1431 75.4671C12.1431 79.213 14.6564 81.8746 18.4756 81.8746C22.2947 81.8746 24.808 79.213 24.808 75.4671C24.808 71.721 22.2947 69.0594 18.4756 69.0594C14.6564 69.0594 12.1431 71.721 12.1431 75.4671ZM15.1738 75.4671C15.1738 73.2736 16.4797 71.7457 18.4756 71.7457C20.4714 71.7457 21.7773 73.2736 21.7773 75.4671C21.7773 77.6357 20.4714 79.1883 18.4756 79.1883C16.4797 79.1883 15.1738 77.6357 15.1738 75.4671Z" fill="#787878"/>
<path id="Vector_3" d="M25.8193 75.2206C25.8193 78.7695 28.1108 81.3325 31.5358 81.3325C33.3099 81.3325 34.8376 80.6178 35.6014 79.4349V81.505C35.6014 83.5012 34.3448 84.8321 32.2503 84.8321C30.3777 84.8321 29.0964 83.9202 28.924 82.3183H25.8933C26.2875 85.4975 28.7268 87.5676 32.0779 87.5676C36.0203 87.5676 38.5335 84.9798 38.5335 80.9628V69.4045H35.8725L35.7 71.0556C34.9608 69.7741 33.4331 69.0101 31.6343 69.0101C28.1601 69.0101 25.8193 71.6471 25.8193 75.2206ZM28.8747 75.1466C28.8747 73.1257 30.156 71.6471 32.0533 71.6471C34.1231 71.6471 35.5028 73.1504 35.5028 75.1466C35.5028 77.1675 34.1231 78.7201 32.0533 78.7201C30.1806 78.7201 28.8747 77.1922 28.8747 75.1466Z" fill="#787878"/>
<path id="Vector_4" d="M40.021 75.4671C40.021 79.213 42.5343 81.8746 46.3535 81.8746C50.1726 81.8746 52.6859 79.213 52.6859 75.4671C52.6859 71.721 50.1726 69.0594 46.3535 69.0594C42.5343 69.0594 40.021 71.721 40.021 75.4671ZM43.0517 75.4671C43.0517 73.2736 44.3577 71.7457 46.3535 71.7457C48.3493 71.7457 49.6553 73.2736 49.6553 75.4671C49.6553 77.6357 48.3493 79.1883 46.3535 79.1883C44.3577 79.1883 43.0517 77.6357 43.0517 75.4671Z" fill="#787878"/>
<path id="Vector_5" d="M55.9396 66.9154C56.9252 66.9154 57.7384 66.1267 57.7384 65.1162C57.7384 64.1305 56.9252 63.3419 55.9396 63.3419C54.9294 63.3419 54.1655 64.1305 54.1655 65.1162C54.1655 66.1267 54.9294 66.9154 55.9396 66.9154ZM54.4366 81.5789H57.4427V69.4045H54.4366V81.5789Z" fill="#787878"/>
<path id="Vector_6" d="M60.0762 87.2225H63.0082V79.9031C63.7721 81.1599 65.423 81.8993 67.2464 81.8993C70.8438 81.8993 72.9875 79.139 72.9381 75.3437C72.8643 71.5238 70.6714 69.0347 67.2217 69.0347C65.3738 69.0347 63.6982 69.848 62.959 71.2527L62.7865 69.4045H60.0762V87.2225ZM63.1314 75.4916C63.1314 73.2983 64.4621 71.7702 66.5564 71.7702C68.6509 71.7702 69.9075 73.3229 69.9075 75.4916C69.9075 77.6604 68.6509 79.1883 66.5564 79.1883C64.4621 79.1883 63.1314 77.6851 63.1314 75.4916Z" fill="#787878"/>
<path id="Vector_7" d="M73.7012 77.9315C73.7998 80.3466 75.6724 81.8993 78.5799 81.8993C81.4381 81.8993 83.3847 80.3713 83.3847 78.0054C83.3847 76.2556 82.3006 75.0726 80.3047 74.5798L78.161 74.0622C77.2494 73.8158 76.6333 73.4954 76.6333 72.7068C76.6333 71.8689 77.2986 71.2774 78.3827 71.2774C79.5163 71.2774 80.2555 71.9181 80.2555 72.9779H82.9905C82.8919 70.5627 81.0932 69.0347 78.4567 69.0347C75.8449 69.0347 73.8983 70.5627 73.8983 72.8793C73.8983 74.4566 74.81 75.7627 77.1508 76.3788L79.2699 76.921C80.0583 77.1429 80.5511 77.5125 80.5511 78.2026C80.5511 79.1637 79.6395 79.6073 78.5306 79.6073C77.2001 79.6073 76.4362 78.9912 76.4362 77.9315H73.7012Z" fill="#787878"/>
<path id="Vector_8" d="M89.62 81.8993C91.2709 81.8993 92.8479 81.1353 93.5624 80.0016L93.7595 81.5789H96.5685V69.4045H93.5624V75.7874C93.5624 77.9807 92.7247 79.213 90.7535 79.213C89.2258 79.213 88.1663 78.4737 88.1663 75.9599V69.4045H85.1602V77.0197C85.1602 79.9277 86.7371 81.8993 89.62 81.8993Z" fill="#787878"/>
<path id="Vector_9" d="M102.228 81.5789V74.5798C102.228 72.6082 103.386 71.6717 104.815 71.6717C106.244 71.6717 107.181 72.5835 107.181 74.3087V81.5789H110.113V74.6044C110.113 72.6082 111.246 71.6717 112.676 71.6717C114.129 71.6717 115.066 72.5835 115.066 74.3087V81.5789H117.973V73.6186C117.973 70.8092 116.421 69.0347 113.464 69.0347C111.616 69.0347 110.162 69.922 109.571 71.3514C108.906 69.922 107.575 69.0347 105.555 69.0347C104.125 69.0347 102.844 69.7001 102.13 70.7845L101.982 69.4045H99.2222V81.5789H102.228Z" fill="#787878"/>
<path id="Vector_10" d="M55.3222 46.6447C51.362 53.7715 43.2986 57.1622 35.1453 57.1622H2.43262C36.4867 52.9054 60.2029 35.8784 63.2434 12.1622C66.284 35.8784 90.0002 52.9054 124.054 57.1622H91.3416C83.1883 57.1622 75.1249 53.7715 71.1646 46.6447C66.8782 38.9311 64.1473 30.2028 63.2434 20.6757C62.3395 30.2028 59.6087 38.9311 55.3222 46.6447Z" fill="#ADB6AE"/>
<path id="Vector_11" d="M36.6141 44.1259C34.7038 45.2014 32.6943 46.2116 30.5903 47.1526C29.3951 43.024 28.9553 38.6925 29.3061 34.3776C29.7701 28.6693 31.6033 23.166 34.6433 18.3555C37.6835 13.545 41.8365 9.5755 46.7347 6.79875C51.6329 4.022 57.1251 2.52366 62.7247 2.43647C68.3242 2.34927 73.8584 3.6759 78.837 6.29886C83.8156 8.9218 88.0848 12.7601 91.2666 17.4737C94.4485 22.1874 96.4446 27.631 97.0784 33.3221C97.5966 37.9772 97.1904 42.6806 95.8958 47.1526C93.7917 46.2116 91.7823 45.2013 89.8719 44.1258C90.6773 40.8564 90.9031 37.4551 90.5279 34.0852C90.0168 29.4958 88.407 25.1061 85.8413 21.3051C83.2754 17.504 79.8327 14.4088 75.818 12.2936C71.8032 10.1785 67.3404 9.10869 62.825 9.179C58.3094 9.24931 53.8806 10.4576 49.9308 12.6967C45.9809 14.9359 42.6318 18.1368 40.1803 22.0161C37.7287 25.8953 36.2504 30.333 35.8763 34.9363C35.6248 38.0304 35.8773 41.1351 36.6141 44.1259Z" fill="white"/>
</g>
</svg>
